<?xml version="1.0" standalone="no"?>
<!DOCTYPE svg PUBLIC "-//W3C//DTD SVG 20010904//EN"
 "http://www.w3.org/TR/2001/REC-SVG-20010904/DTD/svg10.dtd">
<svg version="1.0" xmlns="http://www.w3.org/2000/svg"
 width="260.000000pt" height="260.000000pt" viewBox="0 0 260.000000 260.000000"
 preserveAspectRatio="xMidYMid meet">
<metadata>
Created by potrace 1.11, written by Peter Selinger 2001-2013
</metadata>
<g transform="translate(0.000000,260.000000) scale(0.100000,-0.100000)"
fill="#000000" stroke="none">
<path d="M1103 2534 c-405 -70 -740 -317 -921 -679 -97 -194 -134 -366 -127
-590 2 -71 7 -146 10 -165 12 -67 46 -191 66 -243 28 -72 100 -211 110 -215 5
-2 9 -8 9 -14 0 -12 81 -118 135 -177 42 -45 155 -145 195 -171 12 -8 32 -23
44 -32 40 -30 202 -107 280 -132 277 -91 597 -83 851 20 311 127 550 357 688
661 74 164 107 333 103 533 -4 192 -43 356 -122 515 -34 67 -92 165 -104 175
-4 3 -20 25 -37 50 -33 47 -160 173 -228 226 -161 123 -381 213 -595 243 -95
14 -264 11 -357 -5z"/>
</g>
</svg>
